:SAMPLES-PER-SECOND 30
:FULLY-SPECIFIED
:DEGREES
167
root  -2.078173292 35.12911158 6.297688972 6.363006592 -12.55200195 -4.337997437
lowerback  11.64379978 4.050759792 -2.247169971
upperback  2.923510075 4.840069771 -5.404210091
thorax  -3.155920029 2.399909973 -5.077909946
lowerneck  0.2018039972 -4.393129826 -13.95059967
upperneck  5.458529949 -6.475029945 14.79240036
head  2.502799988 -3.218810081 6.658629894
lclavicle  0 -9.442270133e-015 7.951389973e-016
lhumerus  -0.5119720101 -16.26059914 69.72000122
lradius  2.704047638e-031 -2.270896389e-031 139.9759979
lwrist  0 -0 16.88689995
lhand  -1.496451383e-031 -27.76390076 20.11240005
lfingers  90 7.125020027 -90
lthumb  89.89689403 5.08795885 91.16245106
rclavicle  0 -9.442270133e-015 7.951389973e-016
rhumerus  26.88879967 -7.213190079 -17.38269997
rradius  1.540233736e-031 3.177502805e-031 64.13909912
rwrist  3.531125038e-031 -3.531125038e-031 4.012300014
rhand  -7.920061211e-032 -33.2840004 9.303460121
rfingers  -90 -7.125020027 -90
rthumb  -92.93752616 -24.25625642 -97.11982154
rfemur  4.956910133 3.349270105 24.18460083
rtibia  -0 0 57.97579956
rfoot  -0 -23.97879982 -21.14209938
rtoes  5.373923086 19.29304026 -105.8922705
lfemur  -61.68799973 0.7768729925 -6.454649925
ltibia  -0 0 64.64440155
lfoot  -0 0.9319620132 -9.084179878
ltoes  -4.250644065 -19.5611806 -102.515957
168
root  -2.187035591 34.90511076 6.40517783 6.339996338 -11.74200439 -4.01600647
lowerback  11.8192997 4.325160027 -2.186569929
upperback  2.980580091 5.204060078 -5.421010017
thorax  -3.159450054 2.581680059 -5.192299843
lowerneck  0.1070789993 -4.526249886 -13.5632
upperneck  5.45486021 -6.660990238 14.96280003
head  2.537650108 -3.296119928 6.636839867
lclavicle  0 -9.442270133e-015 7.951389973e-016
lhumerus  -1.619950056 -16.67889977 69.7378006
lradius  2.719324777e-031 -2.25258003e-031 140.3630066
lwrist  -1.412450015e-030 -0 16.87290001
lhand  -1.496451383e-031 -27.76390076 20.11240005
lfingers  90 7.125020027 -90
lthumb  89.89689403 5.08795885 91.16245106
rclavicle  0 -9.442270133e-015 7.951389973e-016
rhumerus  30.79700089 -7.486199856 -16.16790009
rradius  2.044836073e-031 2.878800005e-031 54.61349869
rwrist  3.531125038e-031 -0 4.721439838
rhand  -7.920061211e-032 -33.2840004 9.303460121
rfingers  -90 -7.125020027 -90
rthumb  -92.93752616 -24.25625642 -97.11982154
rfemur  4.953700066 3.152329922 23.65299988
rtibia  -0 0 57.38420105
rfoot  -0 -25.32500076 -21.76460075
rtoes  5.373923086 19.29304026 -105.8922705
lfemur  -62.26210022 0.5754680037 -7.182909966
ltibia  -0 0 65.53929901
lfoot  -0 -0.304042995 -8.728440285
ltoes  -4.250644065 -19.5611806 -102.515957
169
root  -2.300622144 34.70022247 6.501533478 6.276000977 -10.63900757 -3.733001709
lowerback  12.08609962 4.521989822 -2.016619921
upperback  3.074970007 5.477290154 -5.415500164
thorax  -3.170830011 2.718499899 -5.338970184
lowerneck  0.192196995 -4.707670212 -13.30220032
upperneck  5.126729965 -6.914959908 15.3657999
head  2.469909906 -3.415509939 6.712830067
lclavicle  0 -9.442270133e-015 7.951389973e-016
lhumerus  -2.547919989 -17.29850006 69.86949921
lradius  2.731745386e-031 -2.237501103e-031 140.6799927
lwrist  -7.062250077e-031 -0 16.61610031
lhand  -1.496451383e-031 -27.76390076 20.11240005
lfingers  90 7.125020027 -90
lthumb  89.89689403 5.08795885 91.16245106
rclavicle  0 -9.442270133e-015 7.951389973e-016
rhumerus  34.13219833 -8.202389717 -15.46800041
rradius  2.458673606e-031 2.534515365e-031 45.87020111
rwrist  3.531125038e-031 -3.531125038e-031 6.095389843
rhand  -7.920061211e-032 -33.2840004 9.303460121
rfingers  -90 -7.125020027 -90
rthumb  -92.93752616 -24.25625642 -97.11982154
rfemur  5.082089901 2.834470034 23.20779991
rtibia  -0 0 56.64929962
rfoot  -0 -27.13500023 -23.5298996
rtoes  5.373923086 19.29304026 -105.8922705
lfemur  -63.35979843 0.3616780043 -8.151900291
ltibia  -0 0 66.90789795
lfoot  -0 -0.9545540214 -8.019760132
ltoes  -4.250644065 -19.5611806 -102.515957
170
root  -2.429466736 34.49133325 6.572844288 6.240997314 -9.31199646 -3.56199646
lowerback  12.46809959 4.691979885 -1.831439972
upperback  3.136430025 5.713530064 -5.320179939
thorax  -3.288389921 2.834969997 -5.408750057
lowerneck  0.5894759893 -4.929240227 -13.03129959
upperneck  4.424570084 -7.218170166 15.8203001
head  2.250890017 -3.577399969 6.811240196
lclavicle  0 -9.442270133e-015 7.951389973e-016
lhumerus  -3.388259888 -18.16799927 70.12210083
lradius  2.738294894e-031 -2.229480906e-031 140.8480072
lwrist  -7.062250077e-031 -0 16.05369949
lhand  -1.496451383e-031 -27.76390076 20.11240005
lfingers  90 7.125020027 -90
lthumb  89.89689403 5.08795885 91.16245106
rclavicle  0 -9.442270133e-015 7.951389973e-016
rhumerus  37.05350113 -9.677840233 -15.64710045
rradius  2.787100265e-031 2.168159623e-031 37.88029861
rwrist  0 -0 8.890390396
rhand  -7.920061211e-032 -33.2840004 9.303460121
rfingers  -90 -7.125020027 -90
rthumb  -92.93752616 -24.25625642 -97.11982154
rfemur  5.128009796 2.442500114 22.95809937
rtibia  -0 0 56.19810104
rfoot  -0 -29.9260006 -22.93460083
rtoes  5.373923086 19.29304026 -105.8922705
lfemur  -64.80180359 -0.008897449821 -8.927780151
ltibia  -0 0 68.42009735
lfoot  8.828541027e-032 -0.7360209823 -6.993169785
ltoes  -4.250644065 -19.5611806 -102.515957
